<svg aria-hidden="true" style="position: absolute; width: 0; height: 0; overflow: hidden;" version="1.1" xmlns="http://www.w3.org/2000/svg" xmlns:xlink="http://www.w3.org/1999/xlink">
<defs>
<symbol id="icon-travel-car" viewBox="0 0 20 20">
<path d="M2 14v-3h-1c-0.552 0-1-0.448-1-1v0c0-0.552 0.448-1 1-1v0h1l4-7h8l4 7h1c0.552 0 1 0.448 1 1v0c0 0.552-0.448 1-1 1v0h-1v6c0 0.552-0.448 1-1 1v0h-1c-0.552 0-1-0.448-1-1v0-1h-10v1c0 0.552-0.448 1-1 1v0h-1c-0.552 0-1-0.448-1-1v0-3zM15.86 9l-2.86-5h-6l-2.86 5h11.72zM5.5 14c0.828 0 1.5-0.672 1.5-1.5s-0.672-1.5-1.5-1.5v0c-0.828 0-1.5 0.672-1.5 1.5s0.672 1.5 1.5 1.5v0zM14.5 14c0.828 0 1.5-0.672 1.5-1.5s-0.672-1.5-1.5-1.5v0c-0.828 0-1.5 0.672-1.5 1.5s0.672 1.5 1.5 1.5v0z"></path>
</symbol>
<symbol id="icon-star" viewBox="0 0 24 24">
<path d="M9.362 9.158c0 0-3.16 0.35-5.268 0.584-0.19 0.023-0.358 0.15-0.421 0.343s0 0.394 0.14 0.521c1.566 1.429 3.919 3.569 3.919 3.569-0.002 0-0.646 3.113-1.074 5.19-0.036 0.188 0.032 0.387 0.196 0.506 0.163 0.119 0.373 0.121 0.538 0.028 1.844-1.048 4.606-2.624 4.606-2.624s2.763 1.576 4.604 2.625c0.168 0.092 0.378 0.090 0.541-0.029s0.232-0.318 0.195-0.505c-0.428-2.078-1.071-5.191-1.071-5.191s2.353-2.14 3.919-3.566c0.14-0.131 0.202-0.332 0.14-0.524s-0.23-0.319-0.42-0.341c-2.108-0.236-5.269-0.586-5.269-0.586s-1.31-2.898-2.183-4.83c-0.082-0.173-0.254-0.294-0.456-0.294s-0.375 0.122-0.453 0.294c-0.874 1.932-2.183 4.83-2.183 4.83z"></path>
</symbol>
<symbol id="icon-plane-outline" viewBox="0 0 24 24">
<path d="M20.988 12.396l-4.988-2.851v-4.795c0-1.93-1.57-3.5-3.5-3.5s-3.5 1.57-3.5 3.5v4.795l-4.988 2.851c-1.317 0.752-1.865 2.371-1.276 3.769 0.589 1.399 2.132 2.135 3.589 1.72l2.675-0.765v0.838l-0.874 0.699c-1.198 0.959-1.48 2.667-0.653 3.959 0.827 1.293 2.494 1.753 3.869 1.066 0.004-0.001 0.5-0.183 1.158-0.183s1.154 0.182 1.158 0.183c1.375 0.687 3.042 0.227 3.869-1.066 0.827-1.292 0.545-3-0.653-3.959l-0.874-0.699v-0.838l2.676 0.765c1.457 0.415 3-0.321 3.589-1.72s0.041-3.017-1.277-3.769zM20.422 15.388c-0.197 0.466-0.711 0.713-1.196 0.573l-5.226-1.492v4.451l1.625 1.3c0.399 0.319 0.493 0.889 0.218 1.32s-0.828 0.583-1.29 0.355c-0.008-0.004-0.824-0.395-2.053-0.395s-2.045 0.391-2.053 0.395c-0.462 0.227-1.015 0.074-1.29-0.355-0.275-0.431-0.182-1 0.218-1.32l1.625-1.3v-4.451l-5.226 1.493c-0.485 0.14-0.999-0.107-1.196-0.573s-0.014-1.005 0.426-1.256l5.996-3.427v-5.956c0-0.827 0.673-1.5 1.5-1.5s1.5 0.673 1.5 1.5v5.956l5.996 3.426c0.44 0.251 0.622 0.79 0.426 1.256z"></path>
<path d="M13 4.5c0 0.276-0.224 0.5-0.5 0.5s-0.5-0.224-0.5-0.5c0-0.276 0.224-0.5 0.5-0.5s0.5 0.224 0.5 0.5z"></path>
</symbol>
<symbol id="icon-bookmark" viewBox="0 0 24 24">
<path d="M18.419 21.814c0.161 0.116 0.363 0.186 0.581 0.186 0.552 0 1-0.448 1-1v-16c0-0.828-0.337-1.58-0.879-2.121s-1.293-0.879-2.121-0.879h-10c-0.828 0-1.58 0.337-2.121 0.879s-0.879 1.293-0.879 2.121v16c-0.001 0.199 0.060 0.404 0.186 0.581 0.321 0.449 0.946 0.554 1.395 0.232l6.419-4.584zM18 19.057l-5.419-3.871c-0.355-0.254-0.819-0.242-1.162 0l-5.419 3.871v-14.057c0-0.276 0.111-0.525 0.293-0.707s0.431-0.293 0.707-0.293h10c0.276 0 0.525 0.111 0.707 0.293s0.293 0.431 0.293 0.707z"></path>
</symbol>
<symbol id="icon-chevron-right" viewBox="0 0 24 24">
<path d="M9.707 18.707l6-6c0.391-0.391 0.391-1.024 0-1.414l-6-6c-0.391-0.391-1.024-0.391-1.414 0s-0.391 1.024 0 1.414l5.293 5.293-5.293 5.293c-0.391 0.391-0.391 1.024 0 1.414s1.024 0.391 1.414 0z"></path>
</symbol>
<symbol id="icon-home" viewBox="0 0 24 24">
<path d="M2.386 8.211c-0.236 0.184-0.386 0.469-0.386 0.789v11c0 0.828 0.337 1.58 0.879 2.121s1.293 0.879 2.121 0.879h14c0.828 0 1.58-0.337 2.121-0.879s0.879-1.293 0.879-2.121v-11c-0.001-0.3-0.134-0.593-0.386-0.789l-9-7c-0.358-0.275-0.861-0.285-1.228 0zM16 21v-9c0-0.552-0.448-1-1-1h-6c-0.552 0-1 0.448-1 1v9h-3c-0.276 0-0.525-0.111-0.707-0.293s-0.293-0.431-0.293-0.707v-10.511l8-6.222 8 6.222v10.511c0 0.276-0.111 0.525-0.293 0.707s-0.431 0.293-0.707 0.293zM10 21v-8h4v8z"></path>
</symbol>
<symbol id="icon-key" viewBox="0 0 24 24">
<path d="M20.293 1.293l-2 2c-0.391 0.391-0.391 1.024 0 1.414s1.024 0.391 1.414 0l2-2c0.391-0.391 0.391-1.024 0-1.414s-1.024-0.391-1.414 0zM12.092 10.898c-1.262-1.244-2.908-1.869-4.553-1.873-1.652-0.003-3.308 0.62-4.578 1.873-1.277 1.26-1.923 2.921-1.935 4.583s0.614 3.332 1.874 4.609c1.34 1.323 3.009 1.946 4.671 1.935s3.323-0.657 4.583-1.935 1.884-2.947 1.873-4.609-0.657-3.323-1.935-4.583zM10.688 12.322c0.885 0.873 1.332 2.020 1.339 3.173s-0.424 2.306-1.297 3.191-2.020 1.332-3.173 1.339-2.306-0.424-3.191-1.297c-0.916-0.927-1.347-2.080-1.339-3.233s0.455-2.3 1.339-3.173c0.879-0.867 2.023-1.299 3.169-1.296 1.141 0.002 2.279 0.435 3.152 1.296zM12.097 12.317l4.11-4.11c0.391-0.391 0.391-1.024 0-1.414s-1.024-0.391-1.414 0l-4.11 4.11c-0.391 0.391-0.391 1.024 0 1.414s1.024 0.391 1.414 0zM14.793 8.207l3 3c0.391 0.391 1.024 0.391 1.414 0l3.5-3.5c0.391-0.391 0.391-1.024 0-1.414l-3-3c-0.391-0.391-1.024-0.391-1.414 0s-0.391 1.024 0 1.414l2.293 2.293-2.086 2.086-2.293-2.293c-0.391-0.391-1.024-0.391-1.414 0s-0.391 1.024 0 1.414zM16.207 8.207l3.5-3.5c0.391-0.391 0.391-1.024 0-1.414s-1.024-0.391-1.414 0l-3.5 3.5c-0.391 0.391-0.391 1.024 0 1.414s1.024 0.391 1.414 0z"></path>
</symbol>
<symbol id="icon-map" viewBox="0 0 24 24">
<path d="M7 3.723v13.697l-5 2.857v-13.697zM17 20.277v-13.697l5-2.857v13.696zM15.535 22.885c0.082 0.043 0.17 0.075 0.263 0.094 0.033 0.007 0.067 0.012 0.101 0.015s0.068 0.005 0.102 0.005c-0.001 0.001-0.001 0.001-0.001 0.001s0 0 0.001 0c0.173 0 0.344-0.046 0.496-0.132l0.015-0.009 6.985-3.991c0.32-0.183 0.501-0.518 0.503-0.868v-16c0-0.552-0.448-1-1-1-0.183 0-0.354 0.049-0.496 0.132l-6.535 3.734-7.503-3.752c-0.083-0.042-0.171-0.075-0.264-0.094-0.034-0.007-0.067-0.012-0.101-0.015s-0.068-0.005-0.102-0.005c0.001 0 0.001 0 0.001 0s0 0-0.001 0c-0.173 0-0.344 0.046-0.495 0.132l-0.015 0.008-6.985 3.992c-0.321 0.183-0.502 0.518-0.504 0.868v16c0 0.552 0.448 1 1 1 0.183 0 0.354-0.049 0.496-0.132l6.535-3.734zM15 6.618v13.764l-6-3v-13.764z"></path>
</symbol>
<symbol id="icon-map-pin" viewBox="0 0 24 24">
<path d="M22 10c0-2.761-1.12-5.263-2.929-7.071s-4.31-2.929-7.071-2.929-5.263 1.12-7.071 2.929-2.929 4.31-2.929 7.071c0 0.569 0.053 1.128 0.15 1.676 0.274 1.548 0.899 3.004 1.682 4.32 2.732 4.591 7.613 7.836 7.613 7.836 0.331 0.217 0.765 0.229 1.109 0 0 0 4.882-3.245 7.613-7.836 0.783-1.316 1.408-2.772 1.682-4.32 0.098-0.548 0.151-1.107 0.151-1.676zM20 10c0 0.444-0.041 0.887-0.119 1.328-0.221 1.25-0.737 2.478-1.432 3.646-1.912 3.214-5.036 5.747-6.369 6.74-1.398-0.916-4.588-3.477-6.53-6.74-0.695-1.168-1.211-2.396-1.432-3.646-0.077-0.441-0.118-0.884-0.118-1.328 0-2.209 0.894-4.208 2.343-5.657s3.448-2.343 5.657-2.343 4.208 0.894 5.657 2.343 2.343 3.448 2.343 5.657zM16 10c0-1.104-0.449-2.106-1.172-2.828s-1.724-1.172-2.828-1.172-2.106 0.449-2.828 1.172-1.172 1.724-1.172 2.828 0.449 2.106 1.172 2.828 1.724 1.172 2.828 1.172 2.106-0.449 2.828-1.172 1.172-1.724 1.172-2.828zM14 10c0 0.553-0.223 1.051-0.586 1.414s-0.861 0.586-1.414 0.586-1.051-0.223-1.414-0.586-0.586-0.861-0.586-1.414 0.223-1.051 0.586-1.414 0.861-0.586 1.414-0.586 1.051 0.223 1.414 0.586 0.586 0.861 0.586 1.414z"></path>
</symbol>
<symbol id="icon-message-circle" viewBox="0 0 24 24">
<path d="M22 11.497v-0.497c0-0.017-0.001-0.038-0.002-0.058-0.136-2.338-1.113-4.461-2.642-6.051-1.602-1.667-3.814-2.752-6.301-2.889-0.016-0.001-0.036-0.002-0.055-0.002h-0.489c-1.405-0.016-2.882 0.31-4.264 1.008-1.223 0.621-2.291 1.488-3.139 2.535-1.322 1.634-2.107 3.705-2.108 5.946-0.014 1.275 0.253 2.61 0.824 3.877l-1.772 5.317c-0.066 0.196-0.072 0.418 0 0.632 0.175 0.524 0.741 0.807 1.265 0.632l5.314-1.771c1.16 0.527 2.484 0.826 3.876 0.823 1.372-0.009 2.714-0.308 3.941-0.866 1.912-0.871 3.54-2.373 4.541-4.375 0.644-1.249 1.015-2.715 1.011-4.261zM20 11.503c0.003 1.225-0.292 2.375-0.789 3.339-0.801 1.602-2.082 2.785-3.592 3.472-0.97 0.442-2.035 0.679-3.126 0.686-1.221 0.003-2.371-0.292-3.335-0.789-0.249-0.129-0.528-0.142-0.775-0.060l-3.803 1.268 1.268-3.803c0.088-0.263 0.060-0.537-0.056-0.767-0.552-1.094-0.804-2.254-0.792-3.338 0.001-1.789 0.619-3.42 1.663-4.709 0.671-0.829 1.518-1.517 2.49-2.010 1.092-0.552 2.252-0.804 3.336-0.792h0.456c1.962 0.107 3.704 0.961 4.969 2.277 1.202 1.251 1.972 2.916 2.086 4.753z"></path>
</symbol>
<symbol id="icon-search" viewBox="0 0 24 24">
<path d="M16.041 15.856c-0.034 0.026-0.067 0.055-0.099 0.087s-0.060 0.064-0.087 0.099c-1.258 1.213-2.969 1.958-4.855 1.958-1.933 0-3.682-0.782-4.95-2.050s-2.050-3.017-2.050-4.95 0.782-3.682 2.050-4.95 3.017-2.050 4.95-2.050 3.682 0.782 4.95 2.050 2.050 3.017 2.050 4.95c0 1.886-0.745 3.597-1.959 4.856zM21.707 20.293l-3.675-3.675c1.231-1.54 1.968-3.493 1.968-5.618 0-2.485-1.008-4.736-2.636-6.364s-3.879-2.636-6.364-2.636-4.736 1.008-6.364 2.636-2.636 3.879-2.636 6.364 1.008 4.736 2.636 6.364 3.879 2.636 6.364 2.636c2.125 0 4.078-0.737 5.618-1.968l3.675 3.675c0.391 0.391 1.024 0.391 1.414 0s0.391-1.024 0-1.414z"></path>
</symbol>
<symbol id="icon-user" viewBox="0 0 24 24">
<path d="M21 21v-2c0-1.38-0.561-2.632-1.464-3.536s-2.156-1.464-3.536-1.464h-8c-1.38 0-2.632 0.561-3.536 1.464s-1.464 2.156-1.464 3.536v2c0 0.552 0.448 1 1 1s1-0.448 1-1v-2c0-0.829 0.335-1.577 0.879-2.121s1.292-0.879 2.121-0.879h8c0.829 0 1.577 0.335 2.121 0.879s0.879 1.292 0.879 2.121v2c0 0.552 0.448 1 1 1s1-0.448 1-1zM17 7c0-1.38-0.561-2.632-1.464-3.536s-2.156-1.464-3.536-1.464-2.632 0.561-3.536 1.464-1.464 2.156-1.464 3.536 0.561 2.632 1.464 3.536 2.156 1.464 3.536 1.464 2.632-0.561 3.536-1.464 1.464-2.156 1.464-3.536zM15 7c0 0.829-0.335 1.577-0.879 2.121s-1.292 0.879-2.121 0.879-1.577-0.335-2.121-0.879-0.879-1.292-0.879-2.121 0.335-1.577 0.879-2.121 1.292-0.879 2.121-0.879 1.577 0.335 2.121 0.879 0.879 1.292 0.879 2.121z"></path>
</symbol>
</defs>
</svg>
